<?xml version="1.0" standalone="no"?>
<!DOCTYPE svg PUBLIC "-//W3C//DTD SVG 20010904//EN"
 "http://www.w3.org/TR/2001/REC-SVG-20010904/DTD/svg10.dtd">
<svg version="1.0" xmlns="http://www.w3.org/2000/svg"
 width="400.000000pt" height="400.000000pt" viewBox="0 0 400.000000 400.000000"
 preserveAspectRatio="xMidYMid meet">
<metadata>
Created by potrace 1.14, written by Peter Selinger 2001-2017
</metadata>
<g transform="translate(0.000000,400.000000) scale(0.100000,-0.100000)"
fill="#000000" stroke="none">
<path d="M735 3796 c-41 -41 -123 -225 -161 -361 -14 -52 -18 -58 -28 -41 -6
11 -23 33 -37 49 -36 42 -98 42 -160 1 -106 -72 -230 -269 -270 -433 -18 -70
-21 -106 -17 -220 5 -160 16 -194 64 -199 25 -2 36 3 51 25 37 53 87 191 147
403 12 41 24 60 44 72 44 26 118 109 147 163 26 48 27 49 21 15 -3 -19 -9 -87
-12 -150 -6 -109 -5 -116 15 -134 30 -27 65 -9 93 48 18 37 24 43 39 35 35
-18 62 -9 105 36 24 25 53 64 66 87 l22 43 11 -62 c12 -67 26 -90 63 -104 46
-17 109 36 158 133 32 64 63 184 57 224 -4 25 0 32 22 42 51 23 129 8 140 -28
3 -9 -11 -62 -30 -117 -59 -169 -57 -212 11 -229 56 -14 151 62 178 143 33 97
16 97 -80 -2 -75 -77 -101 -93 -88 -52 51 160 72 239 67 259 -18 74 -129 111
-220 73 -19 -8 -50 -15 -69 -15 -25 0 -34 -5 -40 -22 -7 -23 16 -48 44 -48 19
0 9 -80 -19 -154 -21 -56 -85 -140 -100 -130 -13 8 -11 260 3 306 9 32 9 41
-4 54 -20 20 -44 9 -59 -29 -52 -131 -154 -314 -192 -346 -15 -12 -17 -11 -17
11 0 27 63 142 133 242 50 71 54 82 35 89 -24 8 -67 -23 -119 -86 -65 -78 -97
-146 -107 -230 -8 -66 -53 -153 -73 -141 -13 8 -11 77 6 184 29 186 29 184
105 235 78 52 133 109 155 161 22 53 19 54 -13 3 -43 -67 -181 -183 -198 -166
-7 6 53 200 81 264 40 89 74 115 105 78 7 -9 15 -13 18 -10 8 8 -39 55 -55 55
-8 0 -25 -11 -38 -24z m-253 -373 c10 -9 18 -28 18 -43 0 -22 -11 -34 -55 -64
l-55 -36 -1 52 -1 53 -14 -59 c-11 -45 -25 -70 -58 -106 -46 -49 -76 -98 -76
-125 0 -8 11 -21 25 -27 14 -6 25 -17 25 -24 0 -42 -136 -384 -158 -398 -17
-10 -34 54 -39 150 -12 195 67 410 205 559 76 81 142 106 184 68z m-15 -150
c-8 -15 -33 -48 -56 -73 -35 -39 -40 -42 -41 -23 0 40 19 72 61 103 23 16 44
28 46 26 3 -2 -2 -17 -10 -33z m-143 -120 c-18 -35 -54 -58 -54 -34 0 13 61
83 67 77 3 -3 -3 -22 -13 -43z"/>
<path d="M2100 3669 c-38 -16 -76 -56 -145 -154 -35 -49 -76 -102 -90 -117
-19 -21 -22 -28 -10 -28 8 0 24 9 35 20 12 12 24 19 28 17 4 -3 27 -1 52 4
l45 8 -49 -3 c-36 -3 -45 -1 -33 6 10 5 51 6 98 2 74 -6 79 -8 64 -24 -8 -9
-15 -21 -15 -27 0 -5 -12 -15 -27 -22 -35 -16 -19 -26 55 -34 42 -5 68 -16
120 -53 117 -83 135 -94 145 -94 6 0 5 5 -1 13 -6 7 -32 99 -58 204 -25 106
-55 205 -65 222 -33 54 -99 81 -149 60z"/>
<path d="M2018 3383 c12 -2 30 -2 40 0 9 3 -1 5 -23 4 -22 0 -30 -2 -17 -4z"/>
<path d="M1784 3318 l-29 -33 33 29 c30 28 37 36 29 36 -2 0 -16 -15 -33 -32z"/>
<path d="M1975 3333 c-45 -12 -104 -66 -125 -116 -18 -40 -19 -51 -8 -58 21
-13 60 1 96 35 27 25 35 28 42 16 12 -19 -21 -64 -69 -94 -20 -13 -45 -33 -56
-46 -11 -12 -40 -33 -65 -45 -25 -13 -55 -32 -66 -44 -29 -27 -110 -192 -185
-376 -33 -82 -82 -192 -107 -243 -39 -78 -52 -94 -77 -101 -25 -8 -26 -9 -7
-10 29 -1 28 -7 -15 -71 -20 -30 -30 -50 -22 -43 12 10 18 2 38 -50 13 -34 62
-147 109 -252 104 -236 110 -272 64 -410 -17 -49 -46 -123 -65 -162 l-35 -73
-43 89 c-37 75 -46 88 -59 78 -13 -10 -13 -10 -2 5 15 19 0 72 -83 298 -42
114 -79 243 -103 360 -6 25 -10 35 -11 24 -1 -12 -20 -68 -42 -125 -93 -230
-190 -536 -235 -734 -23 -101 -26 -313 -5 -338 34 -42 61 -1 131 198 81 231
193 515 203 515 6 0 27 -8 47 -17 l37 -18 -2 -90 c-2 -85 -2 -86 4 -20 5 53 8
65 15 50 5 -11 10 -35 12 -53 4 -43 52 -190 65 -198 5 -3 7 -14 4 -25 -4 -10
-2 -19 3 -19 6 0 9 11 8 24 -2 17 1 23 11 19 10 -4 11 -9 2 -19 -6 -8 -8 -14
-4 -14 4 0 2 -7 -5 -15 -9 -10 -9 -15 -1 -15 6 0 11 -9 11 -21 0 -11 4 -18 10
-14 5 3 7 22 5 43 -3 24 -2 32 4 23 5 -8 7 -20 4 -28 -3 -7 -2 -13 1 -13 11 0
105 203 127 275 29 98 41 105 37 22 -2 -37 0 -67 3 -67 6 0 4 -44 -5 -100 -4
-24 -40 -133 -57 -175 -5 -11 -11 -31 -13 -45 -13 -69 -20 -89 -41 -116 -19
-23 -23 -25 -19 -9 4 14 -5 30 -27 50 l-32 30 20 -30 c32 -49 55 -154 54 -252
-1 -102 -7 -179 -15 -192 -4 -5 -1 -11 5 -13 15 -5 18 -216 3 -226 -7 -4 -13
-53 -16 -124 -2 -64 -1 -115 4 -112 4 3 5 -9 2 -26 l-7 -30 556 0 555 1 4 29
c3 17 1 30 -4 30 -4 0 -8 5 -8 11 0 5 5 7 12 3 11 -7 8 24 -7 71 -6 19 -6 19
8 2 14 -17 15 -16 20 2 3 12 0 19 -6 18 -8 -1 -11 24 -9 83 2 75 1 82 -11 57
-11 -27 -12 -26 -13 27 0 30 3 53 7 50 5 -3 9 42 10 98 4 356 6 383 22 413
l16 30 1 -52 c0 -57 8 -86 20 -78 18 11 271 -154 375 -244 92 -81 142 -105
203 -98 35 4 53 12 74 36 43 48 38 100 -26 299 -30 92 -87 277 -126 412 -39
135 -95 315 -123 400 -29 85 -51 163 -50 173 5 33 -7 17 -50 -71 -24 -48 -56
-109 -71 -137 -36 -63 -138 -238 -143 -245 -2 -2 -14 2 -26 9 l-22 13 21 -22
c29 -30 95 -38 114 -14 12 16 12 17 0 7 -8 -7 -25 -13 -39 -13 -24 0 -24 1 -6
14 11 8 23 12 26 10 10 -6 20 26 12 39 -3 7 -3 9 2 5 4 -4 14 0 21 10 9 13 9
19 1 24 -8 5 -5 8 7 8 11 0 16 3 13 7 -4 3 -1 13 5 21 12 13 18 32 20 60 1 6
6 12 11 12 5 0 6 7 3 16 -3 8 -2 13 2 10 12 -7 35 61 26 75 -5 8 -3 9 6 4 9
-6 12 -4 8 7 -4 8 -2 21 3 29 6 10 9 7 9 -12 0 -31 -27 -116 -69 -219 -33 -80
-39 -106 -17 -77 14 18 14 18 20 0 2 -10 32 -110 65 -223 33 -113 63 -213 66
-222 5 -11 2 -18 -5 -18 -10 0 -125 68 -257 151 -27 16 -28 30 -8 69 9 17 14
30 11 30 -5 0 -68 -113 -123 -219 l-33 -63 0 48 c0 29 11 74 25 109 27 66 31
105 13 123 -7 7 -8 12 -2 12 11 0 3 84 -8 95 -3 3 -8 -23 -12 -57 -8 -71 -24
-128 -36 -128 -16 0 -20 53 -20 321 0 227 3 279 15 295 18 24 19 35 3 29 -10
-4 -12 12 -10 66 2 39 0 75 -6 81 -12 12 -24 -537 -14 -727 4 -82 7 -217 6
-300 0 -113 2 -139 9 -105 4 25 9 97 10 160 2 144 13 93 23 -105 6 -125 5
-143 -10 -158 -22 -22 -46 -22 -47 1 0 9 -15 -28 -33 -83 -30 -91 -61 -165
-70 -165 -4 0 4 41 27 153 8 39 10 67 4 67 -6 0 -6 5 0 13 14 19 17 87 3 87
-8 0 -10 -8 -7 -21 4 -16 3 -18 -8 -9 -10 8 -14 8 -18 -2 -2 -7 -3 -5 -1 5 1
10 -4 49 -11 85 -18 90 -39 473 -32 597 4 69 3 84 -3 50 -4 -27 -10 -90 -13
-140 -3 -49 -8 -99 -12 -110 -6 -16 -5 -17 4 -5 9 12 11 11 11 -9 0 -13 -3
-21 -7 -18 -3 4 -13 1 -21 -6 -13 -11 -14 0 -9 88 3 55 17 168 31 251 14 83
30 193 36 243 6 54 18 103 27 119 13 20 14 24 3 15 -13 -10 -15 18 -15 225 0
202 -3 242 -17 272 l-17 35 4 -40 c2 -22 6 -53 9 -70 3 -16 -22 25 -56 92 -34
68 -63 121 -65 119 -2 -2 18 -48 44 -103 79 -163 93 -208 93 -293 l0 -55 -45
99 c-25 54 -49 104 -55 111 -5 7 -17 30 -25 51 l-15 39 5 -35 c3 -19 8 -57 11
-85 l4 -50 -17 45 c-10 25 -31 64 -46 88 -15 24 -38 72 -50 108 -12 36 -23 62
-24 57 -2 -5 6 -36 18 -68 15 -43 23 -93 26 -177 7 -154 5 -159 -52 -113 -68
56 -196 214 -244 300 -28 51 5 -62 63 -220 6 -16 4 -15 -13 5 -11 14 -35 61
-53 105 l-33 80 -5 -80 -5 -80 -14 89 -15 89 -12 -59 c-19 -91 -18 -112 9
-116 17 -2 24 -13 32 -46 6 -24 14 -40 18 -36 4 4 4 18 1 30 -4 13 -4 30 -1
38 9 22 51 7 70 -25 9 -17 21 -28 27 -24 5 3 7 0 5 -8 -3 -7 3 -22 15 -32 11
-10 20 -16 20 -13 0 2 -18 49 -40 103 -22 55 -39 103 -38 107 2 4 28 -24 58
-63 83 -106 211 -223 245 -224 11 0 20 -7 20 -15 0 -8 -8 -14 -17 -14 -24 2
-23 -19 1 -40 15 -14 24 -15 40 -7 28 15 40 40 42 89 3 44 8 48 39 32 15 -8
18 -18 15 -43 -3 -17 -3 -26 1 -19 3 6 10 12 15 12 29 0 -15 -180 -68 -282
-37 -70 -30 -65 -230 -195 -43 -28 9 -10 61 22 32 19 60 35 62 35 1 0 0 -15
-3 -33 -6 -39 19 -107 40 -107 12 0 11 -7 -4 -37 -10 -21 -19 -46 -19 -58 0
-11 -7 -51 -15 -90 -40 -187 -84 -270 -148 -278 l-32 -4 33 -1 c67 -4 115 83
157 283 13 61 28 122 34 138 10 25 47 50 63 41 8 -5 2 -67 -12 -109 -16 -50
-26 -232 -19 -365 5 -97 24 -216 55 -352 6 -26 4 -28 -27 -28 -36 -1 -202 37
-231 51 -11 5 -25 5 -35 0 -10 -5 -47 -16 -83 -25 -36 -10 -72 -20 -81 -22
-12 -4 -20 3 -27 23 -6 15 -11 23 -11 17 -1 -6 6 -31 14 -54 l15 -43 -24 26
c-20 22 -27 36 -41 90 -2 4 -3 14 -4 22 0 8 -5 15 -10 15 -5 0 -7 -8 -4 -19 6
-23 -13 -37 -21 -15 -3 8 -11 12 -16 9 -6 -4 -10 -3 -9 2 4 21 -2 33 -18 33
-9 0 -13 3 -10 7 11 10 -27 32 -39 22 -7 -5 -11 -4 -11 5 0 15 14 16 35 2 19
-11 25 -1 10 16 -7 7 -19 24 -26 36 -10 19 -10 22 3 22 12 0 14 8 9 43 -9 58
-20 77 -28 50 -4 -12 -6 -25 -5 -29 4 -23 -2 -54 -10 -54 -13 0 -12 184 2 355
9 109 9 179 2 255 -6 58 -7 107 -4 110 4 3 12 21 18 40 l11 35 -5 -32 c-6 -46
11 -41 19 5 21 125 20 125 40 2 11 -63 27 -142 37 -175 17 -60 17 -60 18 -20
1 48 9 60 38 61 13 0 21 -1 18 -4 -2 -3 6 -13 19 -23 21 -16 24 -29 29 -126 5
-94 31 -223 42 -211 2 2 -3 26 -11 53 -10 30 -18 104 -21 180 -5 123 -4 131
16 149 13 12 21 31 21 53 0 31 2 33 21 23 26 -15 99 -40 99 -35 0 2 -33 20
-74 39 -40 19 -105 60 -144 90 -63 50 -73 63 -103 133 -27 65 -33 93 -36 173
l-4 95 21 -25 20 -25 -9 27 c-9 23 -7 30 12 43 21 15 22 14 29 -13 6 -21 14
-28 30 -28 14 1 24 -6 26 -18 3 -15 -1 -18 -22 -14 -14 3 -26 2 -26 -2 0 -12
49 -60 61 -60 7 0 10 3 7 6 -3 3 5 16 18 29 17 17 24 35 24 64 0 22 4 41 10
43 24 8 -13 31 -61 36 l-54 7 2 45 c2 34 0 39 -6 20 -9 -30 -8 -32 -43 115
l-23 100 -5 -155 -5 -155 -18 45 c-9 25 -14 34 -11 20 4 -14 8 -113 10 -220 3
-216 1 -216 -47 -5 -19 84 -24 95 -29 70 -5 -20 -9 -25 -13 -15 -6 18 -20 86
-23 115 -1 11 -2 25 -4 30 -1 6 -2 51 -1 102 0 68 -4 95 -15 104 -8 7 -11 16
-6 23 5 6 9 21 10 34 1 34 49 133 80 166 77 81 210 153 312 166 51 7 52 7 14
9 -47 1 -138 -28 -201 -64 -24 -14 -43 -23 -43 -21 0 7 190 329 275 468 33 54
67 98 75 98 10 0 7 7 -10 20 l-25 20 25 0 c14 0 36 -7 48 -16 12 -8 28 -13 35
-11 7 2 0 10 -15 17 -14 7 -24 18 -22 24 2 6 -21 27 -52 46 -31 19 -52 36 -46
38 12 4 89 -33 113 -55 14 -12 17 -12 23 2 4 12 -4 20 -29 31 -19 7 -41 14
-49 14 -20 0 -29 17 -14 23 16 7 -1 6 -27 0z m47 -77 c15 -11 26 -21 24 -24
-4 -3 -86 48 -86 54 0 7 36 -10 62 -30z m-582 -970 c-14 -13 -36 -27 -50 -31
-17 -5 -11 3 20 23 55 37 62 39 30 8z m328 -90 c-14 -17 -18 -1 -11 40 l7 39
6 -35 c3 -19 3 -39 -2 -44z m70 -5 c-17 -6 -30 17 -23 40 7 22 8 22 20 -7 7
-17 8 -31 3 -33z m337 30 c15 -30 7 -49 -15 -36 -10 6 -15 65 -5 65 2 0 11
-13 20 -29z m-495 -35 c-7 -7 -10 1 -9 25 0 32 1 33 10 10 6 -16 6 -28 -1 -35z
m-212 -200 c-2 -2 -16 -6 -31 -10 -25 -6 -29 -3 -42 28 -14 33 -13 38 22 113
l37 78 9 -103 c5 -57 7 -105 5 -106z m239 142 c10 -37 10 -45 -4 -55 -28 -22
-33 -15 -33 42 0 68 21 75 37 13z m502 11 c13 -37 14 -69 4 -69 -5 0 -18 -3
-30 -6 -22 -6 -23 -4 -23 50 0 48 3 56 19 56 12 0 23 -11 30 -31z m73 -26 c11
-25 18 -46 16 -48 -10 -11 -48 9 -48 25 0 10 -3 32 -7 50 -9 46 13 31 39 -27z
m-45 -15 c-3 -8 -6 -5 -6 6 -1 11 2 17 5 13 3 -3 4 -12 1 -19z m-728 -80 c1
-16 -3 -28 -9 -28 -5 0 -10 21 -9 48 0 35 3 42 9 27 5 -11 9 -32 9 -47z m306
-57 c-9 -16 -25 -3 -18 15 4 10 9 12 15 6 6 -6 7 -15 3 -21z m425 0 c0 -5 -7
-11 -15 -15 -15 -5 -20 5 -8 17 9 10 23 9 23 -2z m91 -184 c-16 -16 -26 0 -10
19 9 11 15 12 17 4 2 -6 -1 -17 -7 -23z m-743 -27 c-7 -10 -14 -17 -17 -15 -4
4 18 35 25 35 2 0 -1 -9 -8 -20z m-38 -27 l0 -36 -20 23 c-21 25 -24 33 -13
43 18 18 33 5 33 -30z m135 -2 c3 -5 2 -12 -3 -15 -5 -3 -9 1 -9 9 0 17 3 19
12 6z m14 -44 c8 -10 7 -14 -2 -14 -8 0 -14 6 -14 14 0 7 1 13 2 13 2 0 8 -6
14 -13z m619 -22 c-3 -3 -9 2 -12 12 -6 14 -5 15 5 6 7 -7 10 -15 7 -18z
m-685 -46 c-5 -5 -9 -1 -9 9 -1 9 -4 26 -8 37 -4 11 0 7 9 -9 10 -16 13 -32 8
-37z m-39 5 c3 -8 2 -12 -4 -9 -6 3 -10 10 -10 16 0 14 7 11 14 -7z m707 -1
c8 -9 9 -14 2 -10 -7 5 -13 -1 -16 -15 -3 -14 -4 -11 -4 10 1 37 1 37 18 15z
m-535 -8 c4 -8 10 -13 14 -10 5 3 12 0 16 -7 4 -7 4 -10 -1 -6 -4 4 -15 2 -23
-5 -13 -9 -14 -9 -8 1 4 7 2 12 -7 12 -7 0 -14 7 -14 15 0 19 16 19 23 0z
m419 -44 c3 -5 2 -12 -3 -15 -5 -3 -9 1 -9 9 0 17 3 19 12 6z m54 -9 c8 -16 6
-18 -19 -18 -16 0 -27 3 -24 7 2 5 12 5 21 2 12 -5 15 -2 10 10 -9 23 0 22 12
-1z m-519 -33 c0 -5 -4 -9 -8 -9 -5 0 -9 7 -9 15 0 8 4 12 9 9 4 -3 8 -9 8
-15z m563 -31 c-9 -10 -21 -18 -26 -18 -6 0 -2 6 8 14 17 12 18 16 5 32 -14
16 -14 16 7 3 21 -12 21 -15 6 -31z m-554 -43 c0 -26 -2 -27 -9 -10 -5 11 -9
31 -9 45 -1 20 1 22 9 10 5 -8 9 -28 9 -45z m-398 -138 c-10 -9 -11 -8 -5 6 3
10 9 15 12 12 3 -3 0 -11 -7 -18z m969 -237 c0 -5 -5 -10 -11 -10 -5 0 -7 5
-4 10 3 6 8 10 11 10 2 0 4 -4 4 -10z m-753 -42 c-3 -8 -6 -5 -6 6 -1 11 2 17
5 13 3 -3 4 -12 1 -19z m741 -3 c-3 -3 -9 2 -12 12 -6 14 -5 15 5 6 7 -7 10
-15 7 -18z m-713 -119 c-11 -89 10 -200 55 -282 l40 -74 -25 0 c-39 0 -156 42
-163 58 -3 8 0 51 6 96 14 95 15 102 31 141 7 17 17 48 23 71 17 62 41 54 33
-10z m729 19 c3 -8 1 -15 -4 -15 -6 0 -10 7 -10 15 0 8 2 15 4 15 2 0 6 -7 10
-15z m-677 -127 c-3 -8 -6 -5 -6 6 -1 11 2 17 5 13 3 -3 4 -12 1 -19z m50
-193 c0 -8 -4 -12 -9 -9 -5 3 -6 10 -3 15 9 13 12 11 12 -6z m63 -56 c0 -5 -7
-6 -15 -3 -8 4 -15 13 -15 21 0 13 3 13 15 3 8 -7 15 -16 15 -21z m-279 -442
c-13 -13 -15 53 -3 93 5 19 8 13 10 -29 2 -30 -2 -59 -7 -64z m1059 -31 c0 -3
-4 -8 -10 -11 -5 -3 -10 -1 -10 4 0 6 5 11 10 11 6 0 10 -2 10 -4z"/>
<path d="M1685 3208 l-50 -53 53 50 c48 46 57 55 49 55 -1 0 -25 -24 -52 -52z"/>
<path d="M2186 3173 c28 -51 59 -83 78 -83 6 0 3 5 -7 11 -9 5 -33 35 -52 65
-43 67 -56 71 -19 7z"/>
<path d="M2069 3155 c58 -50 98 -119 146 -255 26 -74 62 -173 81 -219 19 -47
34 -87 34 -90 0 -2 -10 5 -22 16 -44 40 -114 71 -192 87 -43 9 -88 16 -100 15
-11 0 23 -9 77 -20 115 -23 168 -52 251 -135 104 -105 161 -261 173 -477 l6
-98 27 6 c25 5 29 2 47 -37 32 -67 35 -85 21 -110 -7 -13 -11 -26 -10 -30 1
-5 -2 -8 -6 -8 -5 0 -9 -6 -10 -12 -10 -76 -11 -91 -3 -68 7 22 38 77 202 360
21 36 43 64 50 62 14 -3 13 -3 -63 90 -56 69 -141 218 -198 348 -62 142 -69
156 -133 275 -33 61 -75 129 -94 152 l-34 43 -70 -3 c-69 -2 -71 -1 -100 33
-49 58 -91 100 -101 100 -5 0 4 -11 21 -25z m667 -893 c-9 -8 -26 10 -26 26 1
15 2 15 15 -2 8 -11 13 -21 11 -24z m-76 -396 c0 -2 -8 -10 -17 -17 -16 -13
-17 -12 -4 4 13 16 21 21 21 13z"/>
<path d="M2120 3171 c0 -10 30 -24 37 -17 3 2 -5 9 -16 16 -12 6 -21 7 -21 1z"/>
<path d="M2404 3157 c10 -7 33 -23 50 -35 20 -16 18 -12 -8 12 -22 20 -44 36
-50 35 -6 0 -3 -6 8 -12z"/>
<path d="M1611 3124 c-12 -15 -21 -32 -21 -38 0 -6 6 -2 12 9 6 11 18 28 26
38 8 9 12 17 9 17 -3 0 -15 -12 -26 -26z"/>
<path d="M1810 3135 c-7 -9 -8 -15 -2 -15 5 0 12 7 16 15 3 8 4 15 2 15 -2 0
-9 -7 -16 -15z"/>
<path d="M1766 3072 c-22 -27 -24 -32 -7 -17 20 17 47 55 39 55 -2 0 -16 -17
-32 -38z"/>
<path d="M2501 3063 c7 -10 27 -34 44 -53 16 -19 40 -48 52 -65 12 -16 23 -27
23 -23 0 9 -119 158 -126 158 -4 0 0 -8 7 -17z"/>
<path d="M1500 2928 c-18 -29 -25 -46 -18 -38 18 19 61 90 55 90 -3 0 -20 -24
-37 -52z"/>
<path d="M1413 2793 c-67 -104 -125 -205 -121 -209 2 -1 34 48 70 109 37 62
77 127 89 145 11 17 19 32 16 32 -3 0 -27 -35 -54 -77z"/>
<path d="M2775 2685 c26 -38 55 -77 63 -85 8 -8 -6 17 -33 55 -26 39 -55 77
-63 85 -8 8 6 -16 33 -55z"/>
<path d="M2015 2590 c10 -11 20 -20 23 -20 3 0 -3 9 -13 20 -10 11 -20 20 -23
20 -3 0 3 -9 13 -20z"/>
<path d="M1792 2557 c-12 -13 -22 -26 -22 -30 0 -16 18 -5 38 23 27 35 15 40
-16 7z"/>
<path d="M2280 2514 c0 -7 9 -22 21 -35 16 -19 18 -20 10 -4 -17 34 -31 51
-31 39z"/>
<path d="M1200 2438 c-12 -22 -12 -22 6 -6 10 10 15 20 12 24 -4 3 -12 -5 -18
-18z"/>
<path d="M2946 2427 c3 -10 9 -15 12 -12 3 3 0 11 -7 18 -10 9 -11 8 -5 -6z"/>
<path d="M1156 2354 c-35 -76 -32 -83 5 -10 17 32 28 60 26 63 -3 2 -17 -21
-31 -53z"/>
<path d="M2417 2280 c3 -36 7 -67 9 -69 7 -8 2 84 -6 109 -5 15 -6 -1 -3 -40z"/>
<path d="M3004 2320 c3 -8 16 -42 30 -75 28 -66 31 -93 16 -144 -5 -19 -8 -37
-6 -39 3 -2 30 4 61 13 37 10 71 29 98 55 40 37 41 39 27 65 -19 36 -84 72
-152 86 -40 8 -59 18 -67 33 -7 11 -9 14 -7 6z"/>
<path d="M1121 2264 c0 -11 3 -14 6 -6 3 7 2 16 -1 19 -3 4 -6 -2 -5 -13z"/>
<path d="M1106 2218 c-8 -30 -6 -88 3 -111 4 -10 7 15 6 57 0 42 -1 76 -1 76
-1 0 -4 -10 -8 -22z"/>
<path d="M2433 2130 c0 -30 2 -43 4 -27 2 15 2 39 0 55 -2 15 -4 2 -4 -28z"/>
<path d="M2533 1870 c0 -41 2 -58 4 -37 2 20 2 54 0 75 -2 20 -4 3 -4 -38z"/>
<path d="M2955 1869 c-4 -6 -5 -12 -2 -15 2 -3 7 2 10 11 7 17 1 20 -8 4z"/>
<path d="M2540 1749 c0 -11 4 -18 10 -14 5 3 7 12 3 20 -7 21 -13 19 -13 -6z"/>
<path d="M2573 1650 c0 -25 2 -35 4 -22 2 12 2 32 0 45 -2 12 -4 2 -4 -23z"/>
<path d="M2516 1541 c-3 -26 -3 -59 2 -71 6 -16 9 -2 10 49 1 39 0 71 -2 71
-2 0 -6 -22 -10 -49z"/>
<path d="M2573 1465 c0 -27 2 -38 4 -22 2 15 2 37 0 50 -2 12 -4 0 -4 -28z"/>
<path d="M2322 1460 c0 -14 2 -19 5 -12 2 6 2 18 0 25 -3 6 -5 1 -5 -13z"/>
<path d="M2580 1404 c0 -6 7 -19 16 -30 14 -18 14 -18 3 6 -14 31 -19 36 -19
24z"/>
<path d="M2531 1384 c0 -11 3 -14 6 -6 3 7 2 16 -1 19 -3 4 -6 -2 -5 -13z"/>
<path d="M2551 1320 c14 -31 19 -36 19 -24 0 6 -7 19 -16 30 -14 18 -14 18 -3
-6z"/>
<path d="M1253 1280 c0 -25 2 -35 4 -22 2 12 2 32 0 45 -2 12 -4 2 -4 -23z"/>
<path d="M1743 1165 c-1 -99 4 -188 13 -235 13 -70 13 -71 7 -15 -3 33 -9 139
-12 235 l-7 175 -1 -160z"/>
<path d="M1925 1310 c3 -5 8 -10 11 -10 2 0 4 5 4 10 0 6 -5 10 -11 10 -5 0
-7 -4 -4 -10z"/>
<path d="M2090 1300 c-9 -6 -10 -10 -3 -10 6 0 15 5 18 10 8 12 4 12 -15 0z"/>
<path d="M2576 1265 c4 -8 11 -15 16 -15 6 0 5 6 -2 15 -7 8 -14 15 -16 15 -2
0 -1 -7 2 -15z"/>
<path d="M2720 1233 c-29 -21 -31 -24 -10 -18 24 7 23 5 -10 -31 -19 -21 -26
-32 -16 -24 18 14 19 13 12 -5 -11 -29 0 -15 39 49 18 31 30 56 27 55 -4 0
-23 -12 -42 -26z"/>
<path d="M2020 1240 c-9 -6 -10 -10 -3 -10 6 0 15 5 18 10 8 12 4 12 -15 0z"/>
<path d="M1261 1204 c0 -11 3 -14 6 -6 3 7 2 16 -1 19 -3 4 -6 -2 -5 -13z"/>
<path d="M1487 1175 c-9 -19 -15 -35 -12 -35 7 0 37 61 33 66 -3 2 -12 -12
-21 -31z"/>
<path d="M1280 1140 c0 -21 17 -46 25 -38 4 4 0 17 -9 30 -10 14 -16 17 -16 8z"/>
<path d="M1442 1094 c-12 -19 -20 -34 -18 -34 7 0 49 61 44 65 -2 2 -13 -12
-26 -31z"/>
<path d="M1316 1091 c-3 -4 4 -17 17 -27 22 -19 22 -19 4 2 -9 11 -14 24 -10
27 3 4 4 7 0 7 -3 0 -8 -4 -11 -9z"/>
<path d="M1367 1035 c-4 -8 -3 -16 1 -19 4 -3 9 4 9 15 2 23 -3 25 -10 4z"/>
<path d="M1890 1044 c1 -12 39 -55 65 -74 11 -8 2 6 -20 30 -22 25 -41 47 -42
49 -2 2 -3 0 -3 -5z"/>
<path d="M2406 801 c4 -21 2 -31 -4 -27 -6 3 -9 -11 -8 -38 0 -24 4 -42 7 -40
12 7 18 94 9 116 -8 19 -9 17 -4 -11z"/>
<path d="M1765 720 c-6 -19 12 -106 20 -98 3 2 1 19 -4 36 -6 18 -8 43 -5 57
5 30 -2 33 -11 5z"/>
<path d="M2592 690 c0 -14 2 -19 5 -12 2 6 2 18 0 25 -3 6 -5 1 -5 -13z"/>
<path d="M2471 644 c0 -11 3 -14 6 -6 3 7 2 16 -1 19 -3 4 -6 -2 -5 -13z"/>
<path d="M2592 520 c0 -14 2 -19 5 -12 2 6 2 18 0 25 -3 6 -5 1 -5 -13z"/>
<path d="M1427 503 c-4 -3 -6 -29 -6 -57 l2 -51 7 55 c7 59 7 64 -3 53z"/>
<path d="M2581 384 c0 -11 3 -14 6 -6 3 7 2 16 -1 19 -3 4 -6 -2 -5 -13z"/>
<path d="M1413 290 c0 -47 2 -66 4 -42 2 23 2 61 0 85 -2 23 -4 4 -4 -43z"/>
<path d="M2572 265 c0 -16 2 -22 5 -12 2 9 2 23 0 30 -3 6 -5 -1 -5 -18z"/>
<path d="M1411 124 c0 -11 3 -14 6 -6 3 7 2 16 -1 19 -3 4 -6 -2 -5 -13z"/>
</g>
</svg>
